<?xml version="1.0" encoding="iso-8859-1"?>
<!-- Generator: Adobe Illustrator 18.0.0, SVG Export Plug-In . SVG Version: 6.00 Build 0)  -->
<!DOCTYPE svg PUBLIC "-//W3C//DTD SVG 1.1//EN" "http://www.w3.org/Graphics/SVG/1.1/DTD/svg11.dtd">
<svg xmlns="http://www.w3.org/2000/svg" xmlns:xlink="http://www.w3.org/1999/xlink" version="1.1" id="Capa_1" x="0px" y="0px" viewBox="0 0 297 297" style="enable-background:new 0 0 297 297;" xml:space="preserve" width="512px" height="512px">
<g>
	<path d="M148.5,103.177c-41.506,0-77.167,25.468-92.199,61.595c7.293,1.665,13.874,5.285,19.099,10.376   c11.249-29.428,39.767-50.388,73.1-50.388c30.969,0,57.778,18.095,70.448,44.261c5.946-3.374,12.764-5.283,19.91-5.283   c0.478,0,0.947,0.034,1.421,0.051C225.012,128.185,189.627,103.177,148.5,103.177z" fill="#499bd6"/>
	<path d="M90.991,200.744c-2.751,0-5.425,0.784-7.734,2.267c-2.066,1.328-4.65,1.566-6.923,0.644   c-2.274-0.923-3.959-2.894-4.517-5.285c-2.68-11.496-12.806-19.525-24.625-19.525c-10.729,0-20.322,6.802-23.87,16.926   c-1.139,3.246-4.344,5.301-7.752,5.03c-0.459-0.038-0.86-0.057-1.226-0.057C6.436,200.744,0,207.179,0,215.089   c0,7.91,6.436,14.345,14.346,14.345h76.645c7.91,0,14.345-6.435,14.345-14.345C105.336,207.179,98.901,200.744,90.991,200.744z" fill="#499bd6"/>
	<path d="M282.654,200.744c-2.75,0-5.424,0.784-7.733,2.267c-2.066,1.328-4.648,1.566-6.921,0.644   c-2.275-0.922-3.96-2.893-4.518-5.284c-2.681-11.497-12.807-19.526-24.625-19.526c-10.73,0-20.323,6.802-23.871,16.926   c-1.138,3.246-4.32,5.318-7.753,5.029c-0.457-0.038-0.858-0.056-1.225-0.056c-7.91,0-14.345,6.435-14.345,14.345   c0,7.91,6.435,14.345,14.345,14.345h76.645c7.91,0,14.346-6.435,14.346-14.345C297,207.179,290.564,200.744,282.654,200.744z" fill="#499bd6"/>
	<path d="M207.773,178.361c-9.682-23.21-32.595-39.573-59.273-39.573c-29.511,0-54.415,20.021-61.892,47.189   c1.444-0.217,2.907-0.34,4.383-0.34c6.186,0,11.929,1.921,16.673,5.191c5.249-17.591,21.561-30.458,40.836-30.458   s35.587,12.866,40.836,30.458c3.927-2.707,8.537-4.491,13.518-5.024C204.221,183.119,205.884,180.635,207.773,178.361z" fill="#499bd6"/>
	<path d="M41.499,164.141C57.416,120.443,99.366,89.149,148.5,89.149c50.534,0,93.456,33.108,108.284,78.763   c7.998,3.94,14.549,10.452,18.479,18.665c2.398-0.622,4.88-0.94,7.391-0.94c0.051,0,0.101,0.004,0.152,0.004   C274.259,119.132,217.295,67.567,148.5,67.567c-66.712,0-122.3,48.489-133.4,112.071C21.48,171.296,30.938,165.647,41.499,164.141z   " fill="#499bd6"/>
</g>
<g>
</g>
<g>
</g>
<g>
</g>
<g>
</g>
<g>
</g>
<g>
</g>
<g>
</g>
<g>
</g>
<g>
</g>
<g>
</g>
<g>
</g>
<g>
</g>
<g>
</g>
<g>
</g>
<g>
</g>
</svg>
